/* XPM */
static char * 03_xpm[] = {
"24 24 3 1",
" 	c None",
".	c #000000000000",
"X	c #900090009000",
"                        ",
"                        ",
"                        ",
"       .                ",
"       .                ",
"        .               ",
"        .               ",
"         X         .    ",
"         X       ..     ",
"          X    ..       ",
"          X  ..         ",
"           ..           ",
"          ..            ",
"        ..  X           ",
"      ..    X           ",
"    ..       X          ",
"   .         X          ",
"              .         ",
"              .         ",
"               .        ",
"               .        ",
"                        ",
"                        ",
"                        "};
