/* XPM */
static char * clear_xpm[] = {
"39 24 2 1",
" 	c None",
".	c #000000000000",
"                                       ",
"                                       ",
"                                       ",
"                                       ",
"                                       ",
"                                       ",
"                                       ",
"       ....   .                        ",
"      .    .  .                        ",
"     .        .   ...    ...   . .     ",
"     .        .  .   .  .   .  ..      ",
"     .        .  .   .      .  .       ",
"     .        .  .....   ....  .       ",
"     .        .  .      .   .  .       ",
"      .    .  .  .   .  .   .  .       ",
"       ....   .   ...    ... . .       ",
"                                       ",
"                                       ",
"                                       ",
"                                       ",
"                                       ",
"                                       ",
"                                       ",
"                                       "};
