/* XPM */
static char * 02_xpm[] = {
"24 24 3 1",
" 	c None",
".	c #000000000000",
"X	c #800080008000",
"                        ",
"                        ",
"                        ",
"                        ",
"                        ",
"     .            .     ",
"      .          .      ",
"       .        .       ",
"        . XXXX .        ",
"         .XXXX.         ",
"        XX.XX.XX        ",
"        XXX..XXX        ",
"        XXX..XXX        ",
"        XX.XX.XX        ",
"         .XXXX.         ",
"        . XXXX .        ",
"       .        .       ",
"      .          .      ",
"     .            .     ",
"                        ",
"                        ",
"                        ",
"                        ",
"                        "};
