/* XPM */
static char * diagram_xpm[] = {
"48 48 2 1",
".	c #000000000000",
" 	c None",
"                                                ",
"                                                ",
"                                                ",
"                                                ",
"      ...                              ...      ",
"     .....                            .....     ",
"    .......                          .......    ",
"    .......                          .......    ",
"    .......                          .......    ",
"     .....                            .....     ",
"      ... .                          . ...      ",
"       .   .                        .   .       ",
"       .    .                      .    .       ",
"       .     .                    .     .       ",
"       .      .                  .      .       ",
"       .       .                .       .       ",
"       .        .              .        .       ",
"       .         .            .         .       ",
"       .          .          .          .       ",
"       .           .        .           .       ",
"       .            .      .            .       ",
"       .             .                  .       ",
"       .              .                 .       ",
"       .               .                .       ",
"       .                .               .       ",
"       .                 .              .       ",
"       .                  .             .       ",
"       .            .      .            .       ",
"       .           .        .           .       ",
"       .          .          .          .       ",
"       .         .            .         .       ",
"       .        .              .        .       ",
"       .       .                .       .       ",
"       .      .                  .      .       ",
"       .     .                    .     .       ",
"       .    .                      .    .       ",
"       .   .                        .   .       ",
"      ... .                          . ...      ",
"     .....                            .....     ",
"    .......                          .......    ",
"    .......                          .......    ",
"    .......                          .......    ",
"     .....                            .....     ",
"      ...                              ...      ",
"                                                ",
"                                                ",
"                                                ",
"                                                "};
