/* XPM */
static char * 06_xpm[] = {
"24 24 2 1",
" 	c None",
".	c #000000000000",
"                        ",
"                        ",
"                        ",
"                    .   ",
"                   ..   ",
"      .           . .   ",
"      .          .  .   ",
"      .         .  .    ",
"      .        .   .    ",
"     .        .    .    ",
"     .       .     .    ",
"     .      .     .     ",
"     .     .      .     ",
"    .     .       .     ",
"    .    .        .     ",
"    .   .        .      ",
"    .  .         .      ",
"   .  .          .      ",
"   . .           .      ",
"   ..                   ",
"   .                    ",
"                        ",
"                        ",
"                        "};
