/* XPM */
static char * folder_xpm[] = {
"17 13 6 1",
" 	c None",
",	c #FFFFFFFFFFFF",
".	c #9E799A699E79",
"X	c #CF3CCF3CCF3C",
"o	c #FFFFFFFF0000",
"O	c #000000000000",
"  .....          ",
" .XoXoX.         ",
".XoXoXoX......   ",
".,,,,,,,,,,,,.O  ",
".,oXoXoXoXoXo.O  ",
".,XoXoXoXoXoX.O  ",
".,oXoXoXoXoXo.O  ",
".,XoXoXoXoXoX.O  ",
".,oXoXoXoXoXo.O  ",
".,XoXoXoXoXoX.O  ",
".,oXoXoXoXoXo.O  ",
"..............O  ",
" OOOOOOOOOOOOOO  "};
