/* XPM */
static char * file_diagram_xpm[] = {
"17 13 2 1",
" 	c None",
".	c #888888",
" ...       ...   ",
" ...       ...   ",
" ...       ...   ",
"  . .     . .    ",
"  .  .   .  .    ",
"  .   .     .    ",
"  .    .    .    ",
"  .     .   .    ",
"  .  .   .  .    ",
"  . .     . .    ",
" ...       ...   ",
" ...       ...   ",
" ...       ...   "};
