/* XPM */
static char * file_knot_xpm[] = {
"17 13 2 1",
" 	c None",
".	c #997755",
"                 ",
"      ...        ",
"     .   .       ",
"    .     .      ",
"    .     .      ",
"    .......      ",
"   ..     ..     ",
"  .  .   .  .    ",
" .   .   .   .   ",
" .    . .    .   ",
" .    ...    .   ",
"  ....   ....    ",
"                 "};
