/* XPM */
static char * floppy[] = {
"24 24 3 1",
" 	c None",
".	c #000000000000",
"X	c #800080008000",
"                        ",
"                        ",
"  ....................  ",
"  ....................  ",
"  ..XXXXXXXXXX........  ",
"  ..XXXXXXXXXX........  ",
"  ..XXXXXXXXXX........  ",
"  ....................  ",
"  ....................  ",
"  ....................  ",
"  .........  .........  ",
"  ........    ........  ",
"  .......      .......  ",
"  .......      .......  ",
"  ........    ........  ",
"  .........  .........  ",
"  ....................  ",
"  ....................  ",
"  .........  .........  ",
"  .........  .........  ",
"  ....................  ",
"  ....................  ",
"                        ",
"                        "};
