/* XPM */
static char * inertia_xpm[] = {
"43 24 2 1",
" 	c None",
".	c #000000000000",
"                                           ",
"                                           ",
"                                           ",
"                                           ",
"                                           ",
"                                           ",
"                                           ",
"     .                    .  .             ",
"     .                    .                ",
"     .  . ..    ...   . .... .   ...       ",
"     .  ..  .  .   .  ..  .  .  .   .      ",
"     .  .   .  .   .  .   .  .      .      ",
"     .  .   .  .....  .   .  .   ....      ",
"     .  .   .  .      .   .  .  .   .      ",
"     .  .   .  .   .  .   .  .  .   .      ",
"     .  .   .   ...   .   .. .   ... .     ",
"                                           ",
"                                           ",
"                                           ",
"                                           ",
"                                           ",
"                                           ",
"                                           ",
"                                           "};
