/* XPM */
static char * mini_trefoil_xpm[] = {
"24 24 17 1",
" 	c None",
".	c #26221F",
"+	c #706A50",
"@	c #9F7C65",
"#	c #524739",
"$	c #896D5D",
"%	c #675844",
"&	c #7E6556",
"*	c #B48C60",
"=	c #3C342C",
"-	c #5E503F",
";	c #342C24",
">	c #957462",
",	c #AA846A",
"'	c #626049",
")	c #BD9564",
"!	c #463C33",
"           >>           ",
"         !>,,>%         ",
"        +,))**,>        ",
"       %,)),>>@@%       ",
"      .>)),'#-&@,       ",
"      '*)*+  =%>@'      ",
"      +*)>    #>*,      ",
"     ;>)*+    .&*,      ",
"     ;$),++++$$&>,      ",
"     %>*,+$$>>,,*>-     ",
"    +-$*,+''++>,*)*+    ",
"   &,+&,@%!#!#%+@***>   ",
"  +*)+'>@&    ##%$,)*>  ",
" #,)*+%$@+    +@$#&,)*! ",
" +*)@%#+>$=  =$**+-&,)@ ",
".>)*+ !%&$+  &,)@  #&,,#",
";>*,!  =+$$-',)*+  .'>,#",
";$*@;  ;#&&+,))@;  .-$>!",
"!+@,$   !'$,)),'   =-&&!",
" %>@>$+$@,*)),+$+'-#'+' ",
" !'>,*,*)))*,+@),$+'++# ",
"  =%&>,,,*@&-+@@@$&'%=  ",
"   .-%+++'#= !%%''-!!   ",
"     #;;=      !!==     "};
