/* XPM */
static char * 04_xpm[] = {
"24 24 3 1",
" 	c None",
".	c #000000000000",
"X	c #800080008000",
"                        ",
"                        ",
"                        ",
"     ....        ...    ",
"    ......    ...   X   ",
"   ...........      X   ",
"   ........         X   ",
"   ........        X    ",
"   ........        X    ",
"    ......         X    ",
"     ....         X     ",
"     .            X     ",
"     .            X     ",
"     .         XXXX     ",
"    .         XXXXXX    ",
"    .        XXXXXXXX   ",
"    .        XXXXXXXX   ",
"   .         XXXXXXXX   ",
"   .      XXXXXXXXXXX   ",
"   .   XXX    XXXXXX    ",
"    XXX        XXXX     ",
"                        ",
"                        ",
"                        "};
