/* XPM */
static char * 05_xpm[] = {
"24 24 3 1",
" 	c None",
".	c #800080008000",
"X	c #000000000000",
"                        ",
"                        ",
"                        ",
"      ...............   ",
"      .             .   ",
"      .             .   ",
"   XXXXXXXXXXXXXXX  .   ",
"   X  .          X  .   ",
"   X  .          X  .   ",
"   X  .          X  .   ",
"   X  .          X  .   ",
"   X  .          X  .   ",
"   X  .          X  .   ",
"   X  .          X  .   ",
"   X  .          X  .   ",
"   X  .          X  .   ",
"   X  .          X  .   ",
"   X  ...........X...   ",
"   X             X      ",
"   X             X      ",
"   XXXXXXXXXXXXXXX      ",
"                        ",
"                        ",
"                        "};
