/* XPM */
static char * printer_xpm[] = {
"24 24 4 1",
" 	c None",
".	c #777777777777",
"X	c #000000000000",
"o	c #FFFFFFFF0000",
"                        ",
"                        ",
"     ..............     ",
"    ................    ",
"   .            .....   ",
"   .            .....   ",
"  ....................  ",
"  ....................  ",
"  ....XXXXXXX....oooo.  ",
"  ...XXXXXXXXX...oooo.  ",
"  ..X.........X.......  ",
"  ..X.       .X.......  ",
"  .X.         .X......  ",
"  .XXXXXXXXXXXXX......  ",
"  ....................  ",
"  .XXXXXXXXXXXXXXXXXX.  ",
"  ....................  ",
"   .XXX..........XXX.   ",
"   ..................   ",
"   .XXX..........XXX.   ",
"   ..................   ",
"   XXXXXXXXXXXXXXXXXX   ",
"                        ",
"                        "};
