/* XPM */
static char * rotate4_xpm[] = {
"24 24 3 1",
" 	c None",
".	c #00000000FFFF",
"o	c #000000008000",
"             .          ",
"              .         ",
"          .... .        ",
"         .    ..        ",
"        .  .....        ",
"       .                ",
"       .                ",
"       .                ",
"      .                 ",
"      .                 ",
"      .                 ",
" ooo  .   oooooooooooo  ",
"      .                 ",
"      .                 ",
"      .                 ",
"      .                 ",
"       .        .       ",
"       .        .       ",
"       .        .       ",
"        .      .        ",
"         .    .         ",
"          ....          ",
"                        ",
"                        "};
