/* XPM */
static char * rotate5_xpm[] = {
"24 24 3 1",
" 	c None",
".	c #00000000FFFF",
"X	c #000000008000",
"                        ",
"          ....          ",
"         .    .         ",
"        .      .        ",
"       .        .       ",
"       .        .       ",
"       .        .       ",
"      .                 ",
"      .                 ",
"      .                 ",
"      .                 ",
" XXX  .   XXXXXXXXXXXX  ",
"      .                 ",
"      .                 ",
"      .                 ",
"       .                ",
"       .                ",
"       .                ",
"        .  .....        ",
"         .    ..        ",
"          .... .        ",
"              .         ",
"             .          ",
"                        "};
