/* XPM */
static char * rotate1_xpm[] = {
"24 24 2 1",
" 	c None",
".	c #00000000FFFF",
"                        ",
"                        ",
"                        ",
"                        ",
"         ......         ",
"       ..      ..       ",
"      .          .      ",
"     .                  ",
"     .                  ",
"    .                   ",
"    .                   ",
"    .                   ",
"    .                   ",
"    .                   ",
"    .                   ",
"     .                  ",
"     .        ....      ",
"      .         ..      ",
"       ..      . .      ",
"         ......  .      ",
"                        ",
"                        ",
"                        ",
"                        "};
