/* XPM */
static char * rotate2_xpm[] = {
"24 24 3 1",
" 	c None",
".	c #000000008000",
"X	c #00000000FFFF",
"                        ",
"                        ",
"            .           ",
"            .           ",
"            .           ",
"            .           ",
"            .           ",
"     XXX    .           ",
"    X       .      XXX  ",
"   X        .      XX X ",
"  X         .      X X X",
"  X         .      X X  ",
"  X         .      X X  ",
"  X         .        X  ",
"   X                X   ",
"    X              X    ",
"     XXX        XXX     ",
"        XXXXXXXX        ",
"                        ",
"                        ",
"            .           ",
"            .           ",
"            .           ",
"                        "};
