/* XPM */
static char * trefoil_xpm[] = {
"48 48 16 1",
" 	c None",
".	c #221E16",
"+	c #9C9893",
"@	c #6A5740",
"#	c #8B7457",
"$	c #493C2B",
"%	c #826647",
"&	c #9D7A53",
"*	c #5C4B35",
"=	c #D8D8D8",
"-	c #B0AFAC",
">	c #BF9465",
",	c #372E22",
"'	c #6D675F",
")	c #8A867F",
"!	c #AC865C",
"                                                ",
"                      ####                      ",
"                    %%&!!!&#%                   ",
"                  %#&>>>>!!!&##                 ",
"                '%&!>>>>>>>>!!&#                ",
"               @%&!>>>>>!!!!!!!&#               ",
"               @&!>>>>>!!&&&!!!!#               ",
"              *#!>>>>>!#%%%#&&!!&#              ",
"             $%&>>>>>&%@****%#&!!&              ",
"             *&!>>>>!#*$,.,**%&!!!#             ",
"            $%&>>>>!&$#   ,,*@#!!!&             ",
"            $%!>>>>!@#     ,$@%&!>!#            ",
"            @#!>>>>%*       ,*%&!>!&            ",
"           $@&>>>>!@        $$%&!>>!            ",
"           $%&>>>>&*         ,@&!>>!#           ",
"           $%&>>>!#@         ,@&!>>>@           ",
"           *%&>>>!%*%%%%%%#%%@*@&>>>%           ",
"           *%&>>!!@%%%%%%###&&&&%@#!#           ",
"          @*%&>>!&@%%##&#&&&&!!!!!&@@           ",
"         @,*%&!!>&@%%%%%%%&&!!!!>!!>&%          ",
"        *%*$%&>!!&@%@@@@%%%%&&!>!>>>>!#         ",
"       *%&@$@&!!!&@******@@@%%#!!>>>>>!&#       ",
"      *#!!#$@&!!!&%$$,,,$$**@@%%&!>>>>>>!%      ",
"     *%!!>!,*#&!!&%...,$...,$$@@%#&>>>>>>!#     ",
"    *#&>>>>,*%&&!&%%        ,.,$*%%&!>>>>>&#    ",
"   @@&>>>>!$$%%&!&%#        $@*,,$@%&>>>>>>#    ",
"   *#!>>>>!$,%%#&&#@        $%&!%,$*%#!>>>>!#   ",
"  *%!>>>>!#,,*%%&&#%       @*#!!>!,,*@#!>>>>&   ",
"  $#!>>>>&*%.$%%#&%#@      $%&!>>!&,,*%&!>>>!&  ",
" '@&>>>>!@' $$*%%#&%%     @*%&>>>!%@@,*%#!>>!&  ",
" $%&>>>>&*  #.**%##%%%    $%&!>>!!*  *,@%&!>!&& ",
" ,%&>>>&%#   ,$*@%###%   $%&!>>!!#    ,$@#&!>&& ",
" $%!!>>&@     .$@%%##%% @@#!>>>>&*     ,@%&&!&# ",
" $%!!>!#@     ,,*@%%#&#$*#&>>>>!#*     .$%%&!&% ",
" $@&!>!&@      .$*%%&&*@#&>>>>!&*      .,@%#&&% ",
" $%&!!!&%      *,$@%%$@&!>>>>>!%@      .,*%%##@ ",
" **#&!!&#%      ,,*$*%&!>>>>>!#*      *.,@%%%%@ ",
" '*%&&!!&%@     @,*%&&>>>>>>!&**      .,$*%%%%* ",
"  $@&&&&!&&%%*@@%#&!!>>>>>>!&**@@@@*$,$,$@@%%@  ",
"  ,*@&&!&&&&&&!&!!!>>>>>>>!&@@>!&#%@**$**@@%@*  ",
"  #,*%&&!!!!!!!!!>>>>>>>>!&**>>!!&#%@@**@@@@*@  ",
"   *$*%#&!!!!!>>>>>>>>>!&%*@>>>>!!&#%@@@@*@*$   ",
"    ,$*@%#&!!>!>>>>>>&&#@$*&!!!!!&#%%@@@@**$    ",
"     ,$*@%%%#&&&&&&&##%$.$*%%#&&&&%%%%@**$*     ",
"      $,$*@%%%%%%%%%@$$# @,$*@%@%%@%***$$       ",
"        *,,$**@@**$,*      #$,$$$$$$,,$         ",
"          #@*$$$@'            @@@@@@            ",
"                                                "};
