/* XPM */
static char * start_xpm[] = {
"49 24 2 1",
" 	c None",
".	c #000000000000",
"                                                 ",
"                                                 ",
"                                                 ",
"                                                 ",
"                                                 ",
"                                                 ",
"                                                 ",
"      ....                          .  .         ",
"     .    .                         .  .         ",
"     .       . .  .    ...    ...  ... . ..      ",
"      ..     .. .. .  .   .  .   .  .  ..  .     ",
"        ..   .  .  .  .   .  .   .  .  .   .     ",
"          .  .  .  .  .   .  .   .  .  .   .     ",
"     .    .  .  .  .  .   .  .   .  .  .   .     ",
"     .    .  .  .  .  .   .  .   .  .  .   .     ",
"      ....   .  .  .   ...    ...   .. .   .     ",
"                                                 ",
"                                                 ",
"                                                 ",
"                                                 ",
"                                                 ",
"                                                 ",
"                                                 ",
"                                                 "};
