/* XPM */
static char * stop_xpm[] = {
"24 24 3 1",
" 	c None",
".	c #FFFFFFFFFFFF",
"X	c #C00000000000",
"                        ",
"                        ",
"                        ",
"       XXXXXXXXX        ",
"      XXXXXXXXXXX       ",
"     XXXXXXXXXXXXX      ",
"    XXXXXXXXXXXXXXX     ",
"   XXXXXXXXXXXXXXXXX    ",
"  XXXXXXXXXXXXXXXXXXX   ",
"  XXX.XX...XX.XX..XXX   ",
"  XX.X.XX.XX.X.X.X.XX   ",
"  XX.XXXX.XX.X.X.X.XX   ",
"  XXX.XXX.XX.X.X..XXX   ",
"  XXXX.XX.XX.X.X.XXXX   ",
"  XX.X.XX.XX.X.X.XXXX   ",
"  XXX.XXX.XXX.XX.XXXX   ",
"  XXXXXXXXXXXXXXXXXXX   ",
"   XXXXXXXXXXXXXXXXX    ",
"    XXXXXXXXXXXXXXX     ",
"     XXXXXXXXXXXXX      ",
"      XXXXXXXXXXX       ",
"       XXXXXXXXX        ",
"                        ",
"                        "};
